# xmcd CD database file
#
# Track frame offsets:
#	150
#	18186
#	35408
#	58654
#	78302
#	105302
#	121460
#	135204
#	154160
#	169621
#	194624
#
# Disc length: 2813 seconds
#
# Revision: 0
# Processed by: cddbd v1.4PL0 Copyright (c) Steve Scherf et al.
# Submitted via: CDex 1.50beta9
#
DISCID=810afb0b
DTITLE=Teddy Wilson - The Complete Verve Recordings Of The Teddy Wilson Trio, Disc 5
DYEAR=1957
DGENRE=Jazz
TTITLE0=Stompin' At The Savoy
TTITLE1=Air Mail Special
TTITLE2=Basin Street Blues
TTITLE3=I Got Rhythm
TTITLE4=Sweet Georgia Brown
TTITLE5=Stompin' At The Savoy (Alt)
TTITLE6=Tea For Two
TTITLE7=Medley - Body And Soul - Sweet Lorraine - I've Got The World On A String
TTITLE8=Runnin' Wild
TTITLE9=How High The Moon
TTITLE10=Air Mail Special (Alt)
EXTD=YEAR: 1957
EXTT0=
EXTT1=
EXTT2=
EXTT3=
EXTT4=
EXTT5=
EXTT6=
EXTT7=
EXTT8=
EXTT9=
EXTT10=
PLAYORDER=
